<svg viewBox="0 0 950.5 400" xmlns="http://www.w3.org/2000/svg"><g><g><g><g><g><line x1="49.98400115966797" y1="378.6199998855591" x2="44.98400115966797" y2="378.6199998855591" style="visibility: inherit;" fill="rgb(0, 0, 0)" stroke="rgb(204, 204, 204)" stroke-width="1px"></line><line x1="49.98400115966797" y1="344.19999989596283" x2="44.98400115966797" y2="344.19999989596283" style="visibility: inherit;" fill="rgb(0, 0, 0)" stroke="rgb(204, 204, 204)" stroke-width="1px"></line><line x1="49.98400115966797" y1="309.7799999063665" x2="44.98400115966797" y2="309.7799999063665" style="visibility: inherit;" fill="rgb(0, 0, 0)" stroke="rgb(204, 204, 204)" stroke-width="1px"></line><line x1="49.98400115966797" y1="275.3599999167702" x2="44.98400115966797" y2="275.3599999167702" style="visibility: inherit;" fill="rgb(0, 0, 0)" stroke="rgb(204, 204, 204)" stroke-width="1px"></line><line x1="49.98400115966797" y1="240.93999992717397" x2="44.98400115966797" y2="240.93999992717397" style="visibility: inherit;" fill="rgb(0, 0, 0)" stroke="rgb(204, 204, 204)" stroke-width="1px"></line><line x1="49.98400115966797" y1="206.5199999375777" x2="44.98400115966797" y2="206.5199999375777" style="visibility: inherit;" fill="rgb(0, 0, 0)" stroke="rgb(204, 204, 204)" stroke-width="1px"></line><line x1="49.98400115966797" y1="172.09999994798142" x2="44.98400115966797" y2="172.09999994798142" style="visibility: inherit;" fill="rgb(0, 0, 0)" stroke="rgb(204, 204, 204)" stroke-width="1px"></line><line x1="49.98400115966797" y1="137.6799999583851" x2="44.98400115966797" y2="137.6799999583851" style="visibility: inherit;" fill="rgb(0, 0, 0)" stroke="rgb(204, 204, 204)" stroke-width="1px"></line><line x1="49.98400115966797" y1="103.25999996878886" x2="44.98400115966797" y2="103.25999996878886" style="visibility: inherit;" fill="rgb(0, 0, 0)" stroke="rgb(204, 204, 204)" stroke-width="1px"></line><line x1="49.98400115966797" y1="68.83999997919256" x2="44.98400115966797" y2="68.83999997919256" style="visibility: inherit;" fill="rgb(0, 0, 0)" stroke="rgb(204, 204, 204)" stroke-width="1px"></line><line x1="49.98400115966797" y1="34.419999989596306" x2="44.98400115966797" y2="34.419999989596306" style="visibility: inherit;" fill="rgb(0, 0, 0)" stroke="rgb(204, 204, 204)" stroke-width="1px"></line><line x1="49.98400115966797" y1="0" x2="44.98400115966797" y2="0" style="visibility: inherit;" fill="rgb(0, 0, 0)" stroke="rgb(204, 204, 204)" stroke-width="1px"></line></g><g transform="translate(39.98400115966797, 0)"><text style="text-anchor: end; visibility: hidden; font-family: &quot;Helvetica Neue&quot;, sans-serif; font-size: 12px; font-weight: 200;" x="0" y="378.6199998855591" dx="0em" dy="0.3em" fill="rgb(50, 49, 63)" stroke="none" stroke-width="1px">-0.5</text><text style="text-anchor: end; visibility: inherit; font-family: &quot;Helvetica Neue&quot;, sans-serif; font-size: 12px; font-weight: 200;" x="0" y="344.19999989596283" dx="0em" dy="0.3em" fill="rgb(50, 49, 63)" stroke="none" stroke-width="1px">0</text><text style="text-anchor: end; visibility: inherit; font-family: &quot;Helvetica Neue&quot;, sans-serif; font-size: 12px; font-weight: 200;" x="0" y="309.7799999063665" dx="0em" dy="0.3em" fill="rgb(50, 49, 63)" stroke="none" stroke-width="1px">0.5</text><text style="text-anchor: end; visibility: inherit; font-family: &quot;Helvetica Neue&quot;, sans-serif; font-size: 12px; font-weight: 200;" x="0" y="275.3599999167702" dx="0em" dy="0.3em" fill="rgb(50, 49, 63)" stroke="none" stroke-width="1px">1</text><text style="text-anchor: end; visibility: inherit; font-family: &quot;Helvetica Neue&quot;, sans-serif; font-size: 12px; font-weight: 200;" x="0" y="240.93999992717397" dx="0em" dy="0.3em" fill="rgb(50, 49, 63)" stroke="none" stroke-width="1px">1.5</text><text style="text-anchor: end; visibility: inherit; font-family: &quot;Helvetica Neue&quot;, sans-serif; font-size: 12px; font-weight: 200;" x="0" y="206.5199999375777" dx="0em" dy="0.3em" fill="rgb(50, 49, 63)" stroke="none" stroke-width="1px">2</text><text style="text-anchor: end; visibility: inherit; font-family: &quot;Helvetica Neue&quot;, sans-serif; font-size: 12px; font-weight: 200;" x="0" y="172.09999994798142" dx="0em" dy="0.3em" fill="rgb(50, 49, 63)" stroke="none" stroke-width="1px">2.5</text><text style="text-anchor: end; visibility: inherit; font-family: &quot;Helvetica Neue&quot;, sans-serif; font-size: 12px; font-weight: 200;" x="0" y="137.6799999583851" dx="0em" dy="0.3em" fill="rgb(50, 49, 63)" stroke="none" stroke-width="1px">3</text><text style="text-anchor: end; visibility: inherit; font-family: &quot;Helvetica Neue&quot;, sans-serif; font-size: 12px; font-weight: 200;" x="0" y="103.25999996878886" dx="0em" dy="0.3em" fill="rgb(50, 49, 63)" stroke="none" stroke-width="1px">3.5</text><text style="text-anchor: end; visibility: inherit; font-family: &quot;Helvetica Neue&quot;, sans-serif; font-size: 12px; font-weight: 200;" x="0" y="68.83999997919256" dx="0em" dy="0.3em" fill="rgb(50, 49, 63)" stroke="none" stroke-width="1px">4</text><text style="text-anchor: end; visibility: inherit; font-family: &quot;Helvetica Neue&quot;, sans-serif; font-size: 12px; font-weight: 200;" x="0" y="34.419999989596306" dx="0em" dy="0.3em" fill="rgb(50, 49, 63)" stroke="none" stroke-width="1px">4.5</text><text style="text-anchor: end; visibility: hidden; font-family: &quot;Helvetica Neue&quot;, sans-serif; font-size: 12px; font-weight: 200;" x="0" y="0" dx="0em" dy="0.3em" fill="rgb(50, 49, 63)" stroke="none" stroke-width="1px">5</text></g><line x1="49.98400115966797" y1="0" x2="49.98400115966797" y2="378.6199998855591" fill="rgb(0, 0, 0)" stroke="rgb(204, 204, 204)" stroke-width="1px"></line></g></g><g transform="translate(49, 0)" clip-path="url(#clip_0)"><clipPath id="clip_0"><rect width="900" height="378"></rect></clipPath><g><g><g><line x1="0" y1="0" x2="0" y2="378.6199998855591" fill="rgb(0, 0, 0)" stroke="rgb(60, 60, 60)" stroke-width="1px" opacity="0.25"></line><line x1="100.05733320448132" y1="0" x2="100.05733320448132" y2="378.6199998855591" fill="rgb(0, 0, 0)" stroke="rgb(60, 60, 60)" stroke-width="1px" opacity="0.25"></line><line x1="200.11466640896265" y1="0" x2="200.11466640896265" y2="378.6199998855591" fill="rgb(0, 0, 0)" stroke="rgb(60, 60, 60)" stroke-width="1px" opacity="0.25"></line><line x1="300.171999613444" y1="0" x2="300.171999613444" y2="378.6199998855591" fill="rgb(0, 0, 0)" stroke="rgb(60, 60, 60)" stroke-width="1px" opacity="0.25"></line><line x1="400.2293328179253" y1="0" x2="400.2293328179253" y2="378.6199998855591" fill="rgb(0, 0, 0)" stroke="rgb(60, 60, 60)" stroke-width="1px" opacity="0.25"></line><line x1="500.28666602240673" y1="0" x2="500.28666602240673" y2="378.6199998855591" fill="rgb(0, 0, 0)" stroke="rgb(60, 60, 60)" stroke-width="1px" opacity="0.25"></line><line x1="600.343999226888" y1="0" x2="600.343999226888" y2="378.6199998855591" fill="rgb(0, 0, 0)" stroke="rgb(60, 60, 60)" stroke-width="1px" opacity="0.25"></line><line x1="700.4013324313694" y1="0" x2="700.4013324313694" y2="378.6199998855591" fill="rgb(0, 0, 0)" stroke="rgb(60, 60, 60)" stroke-width="1px" opacity="0.25"></line><line x1="800.4586656358506" y1="0" x2="800.4586656358506" y2="378.6199998855591" fill="rgb(0, 0, 0)" stroke="rgb(60, 60, 60)" stroke-width="1px" opacity="0.25"></line><line x1="900.515998840332" y1="0" x2="900.515998840332" y2="378.6199998855591" fill="rgb(0, 0, 0)" stroke="rgb(60, 60, 60)" stroke-width="1px" opacity="0.25"></line></g><g><line x1="0" y1="378.6199998855591" x2="900.515998840332" y2="378.6199998855591" fill="rgb(0, 0, 0)" stroke="rgb(60, 60, 60)" stroke-width="1px" opacity="0.25"></line><line x1="0" y1="344.19999989596283" x2="900.515998840332" y2="344.19999989596283" fill="rgb(0, 0, 0)" stroke="rgb(60, 60, 60)" stroke-width="1px" opacity="0.25"></line><line x1="0" y1="309.7799999063665" x2="900.515998840332" y2="309.7799999063665" fill="rgb(0, 0, 0)" stroke="rgb(60, 60, 60)" stroke-width="1px" opacity="0.25"></line><line x1="0" y1="275.3599999167702" x2="900.515998840332" y2="275.3599999167702" fill="rgb(0, 0, 0)" stroke="rgb(60, 60, 60)" stroke-width="1px" opacity="0.25"></line><line x1="0" y1="240.93999992717397" x2="900.515998840332" y2="240.93999992717397" fill="rgb(0, 0, 0)" stroke="rgb(60, 60, 60)" stroke-width="1px" opacity="0.25"></line><line x1="0" y1="206.5199999375777" x2="900.515998840332" y2="206.5199999375777" fill="rgb(0, 0, 0)" stroke="rgb(60, 60, 60)" stroke-width="1px" opacity="0.25"></line><line x1="0" y1="172.09999994798142" x2="900.515998840332" y2="172.09999994798142" fill="rgb(0, 0, 0)" stroke="rgb(60, 60, 60)" stroke-width="1px" opacity="0.25"></line><line x1="0" y1="137.6799999583851" x2="900.515998840332" y2="137.6799999583851" fill="rgb(0, 0, 0)" stroke="rgb(60, 60, 60)" stroke-width="1px" opacity="0.25"></line><line x1="0" y1="103.25999996878886" x2="900.515998840332" y2="103.25999996878886" fill="rgb(0, 0, 0)" stroke="rgb(60, 60, 60)" stroke-width="1px" opacity="0.25"></line><line x1="0" y1="68.83999997919256" x2="900.515998840332" y2="68.83999997919256" fill="rgb(0, 0, 0)" stroke="rgb(60, 60, 60)" stroke-width="1px" opacity="0.25"></line><line x1="0" y1="34.419999989596306" x2="900.515998840332" y2="34.419999989596306" fill="rgb(0, 0, 0)" stroke="rgb(60, 60, 60)" stroke-width="1px" opacity="0.25"></line><line x1="0" y1="0" x2="900.515998840332" y2="0" fill="rgb(0, 0, 0)" stroke="rgb(60, 60, 60)" stroke-width="1px" opacity="0.25"></line></g></g></g><g><g><line x1="0" y1="344.19999989596283" x2="900.515998840332" y2="344.19999989596283" fill="rgb(0, 0, 0)" stroke="rgb(153, 153, 153)" stroke-width="1.5px"></line></g></g><g><g><line x1="100.05733320448132" y1="0" x2="100.05733320448132" y2="378.6199998855591" fill="rgb(0, 0, 0)" stroke="rgb(153, 153, 153)" stroke-width="1.5px"></line></g></g><g><g><g><g><g><path style="fill: none;" stroke="rgb(255, 112, 67)" stroke-width="2px" d="M100.05733320448132,18.17628335403367L105.06019986470541,59.377336102658205L110.06306652492947,64.56930786088503L115.06593318515353,66.81781972772859L120.0687998453776,68.88173756424771L125.07166650560168,70.80204396968838L130.07453316582573,72.84188432399128L135.0773998260498,74.53878058087889L140.08026648627387,75.84022840114898L145.08313314649794,78.47306087029335L150.085999806722,80.71645196382303L155.08886646694606,83.36162680967266L160.09173312717016,86.7623454976096L165.0945997873942,90.53972004061154L170.09746644761827,94.55097605708403L175.10033310784235,99.14956179482982L180.10319976806642,104.13847519587927L185.10606642829046,109.42386824161446L190.10893308851453,115.33306010574938L195.1117997487386,121.23627773435146L200.11466640896265,127.24076193778254L205.11753306918675,133.75359778176124L210.12039972941082,139.59620318008072L215.1232663896349,145.89513184906L220.12613304985894,151.4126173801529L225.128999710083,157.42273115168226L230.13186637030705,162.87561615789235L235.13473303053115,168.25543166796973L240.1375996907552,173.40323675636435L245.14046635097927,178.66386298501413L250.14333301120337,183.86052878544535L255.1461996714274,188.38606143979342L260.14906633165145,193.81611633164582L265.1519329918755,197.61766683327386L270.1547996520996,202.58174776629795L275.1576663123237,206.60052902175897L280.16053297254774,210.80633339232153L285.1633996327718,214.97281284987108L290.1662662929959,219.01394004400788L295.16913295321996,222.49331676433837L300.171999613444,226.79357642471308L305.1748662736681,230.33245751571496L310.1777329338921,233.48095349884076L315.1805995941162,236.86323247902723L320.1834662543403,240.56630657077292L325.18633291456433,243.6328045299367L330.1891995747884,246.55581415353439L335.1920662350125,249.5281194266457L340.19493289523655,252.24610937123583L345.1977995554606,254.8804025737935L350.2006662156847,258.0251154215063L355.2035328759087,260.8943240998383L360.20639953613284,262.91014441649736L365.2092661963569,265.13484961125187L370.2121328565809,267.804692797777L375.21499951680505,270.67686397477297L380.21786617702907,272.2275309693528L385.22073283725314,274.2964875155109L390.2235994974772,277.36437645396427L395.2264661577013,278.7682520500632L400.2293328179253,280.7422034797873L405.2321994781494,282.82941509042735L410.2350661383735,284.96648448675404L415.23793279859757,286.6621703044368L420.24079945882164,288.39997120007934L425.24366611904566,289.98842441376775L430.2465327792698,291.9391600298621L435.2493994394938,293.23010780292844L440.2522660997179,294.920147639778L445.25513275994194,295.6406543958659L450.257999420166,297.03814954124124L455.2608660803901,298.23585246370027L460.2637327406141,299.7244300818493L465.2665994008383,300.5864884707756L470.2694660610623,301.9109428423044L475.2723327212864,302.7803254142157L480.2751993815104,303.5781033265913L485.27806604173446,304.9457437070373L490.28093270195853,306.24858250659696L495.28379936218266,306.67573214082915L500.28666602240673,308.02745216834415L505.28953268263075,308.7907879563634L510.2923993428548,310.18754863184836L515.2952660030788,309.5865265864177L520.2981326633029,310.99414223450026L525.3009993235271,311.9283345936654L530.303865983751,312.16372398716226L535.3067326439751,312.97031553822234L540.3095993041992,313.9233025305319L545.3124659644233,314.4296518174119L550.3153326246475,315.6469146167838L555.3181992848714,315.6953239786085L560.3210659450955,316.22139521815933L565.3239326053196,316.831591982444L570.3267992655436,317.4473177868253L575.3296659257676,317.8376782755989L580.3325325859918,318.4277920070432L585.3353992462158,318.99984967841726L590.3382659064399,318.75387817404174L595.341132566664,319.91695638046775L600.343999226888,319.96312540396764L605.3468658871121,320.10605570654434L610.3497325473362,320.76345959981643L615.3525992075603,321.24370238011824L620.3554658677842,321.6706899385925L625.3583325280083,322.19747718370684L630.3611991882324,322.3502612820474L635.3640658484566,322.8489191509973L640.3669325086806,323.34353128077447L645.3697991689046,323.33959222437915L650.3726658291287,323.3413955736351L655.3755324893527,324.1790502772375L660.3783991495768,324.3007322427902L665.3812658098009,324.86836463049514L670.384132470025,325.3369030791641L675.386999130249,325.1528629786452L680.3898657904731,325.9173394517456L685.3927324506972,325.4547731870176L690.3955991109212,325.91949772639555L695.3984657711453,325.6319917445603L700.4013324313694,326.68738189359624L705.4041990915935,326.86645919337536L710.4070657518174,327.4414485895353L715.4099324120415,327.487443227726L720.4127990722657,327.6331934433315L725.4156657324897,327.4681859606143L730.4185323927138,327.87662712856064L735.4213990529378,328.0734476206496L740.4242657131618,328.0446832768005L745.4271323733859,328.382086024568L750.4299990336101,328.32342588395215L755.4328656938341,328.7948909284273L760.4357323540581,328.54464698397726L765.4385990142822,329.0491457349882L770.4414656745063,328.97800473521573L775.4443323347305,329.5529059129251L780.4471989949544,329.8463009892305L785.4500656551785,329.15076928680304L790.4529323154026,329.53954081767137L795.4557989756266,329.8462414930662L800.4586656358506,330.3158067634674L805.4615322960748,330.28024549574457L810.4643989562989,330.5409381976015L815.4672656165229,330.6944854881187L820.470132276747,330.6171004684821L825.472998936971,330.7665230335395L830.4758655971951,330.9168247057143L835.4787322574192,330.8032301153231L840.4815989176433,331.1615283263126L845.4844655778672,331.41795166548275" fill="none"></path></g></g></g></g></g></g><g transform="translate(49, 378)" clip-path="url(#clip_1)"><clipPath id="clip_1"><rect width="900" height="21"></rect></clipPath><g><g><line x1="0" y1="0" x2="0" y2="5" style="visibility: inherit;" fill="rgb(0, 0, 0)" stroke="rgb(204, 204, 204)" stroke-width="1px"></line><line x1="100.05733320448132" y1="0" x2="100.05733320448132" y2="5" style="visibility: inherit;" fill="rgb(0, 0, 0)" stroke="rgb(204, 204, 204)" stroke-width="1px"></line><line x1="200.11466640896265" y1="0" x2="200.11466640896265" y2="5" style="visibility: inherit;" fill="rgb(0, 0, 0)" stroke="rgb(204, 204, 204)" stroke-width="1px"></line><line x1="300.171999613444" y1="0" x2="300.171999613444" y2="5" style="visibility: inherit;" fill="rgb(0, 0, 0)" stroke="rgb(204, 204, 204)" stroke-width="1px"></line><line x1="400.2293328179253" y1="0" x2="400.2293328179253" y2="5" style="visibility: inherit;" fill="rgb(0, 0, 0)" stroke="rgb(204, 204, 204)" stroke-width="1px"></line><line x1="500.28666602240673" y1="0" x2="500.28666602240673" y2="5" style="visibility: inherit;" fill="rgb(0, 0, 0)" stroke="rgb(204, 204, 204)" stroke-width="1px"></line><line x1="600.343999226888" y1="0" x2="600.343999226888" y2="5" style="visibility: inherit;" fill="rgb(0, 0, 0)" stroke="rgb(204, 204, 204)" stroke-width="1px"></line><line x1="700.4013324313694" y1="0" x2="700.4013324313694" y2="5" style="visibility: inherit;" fill="rgb(0, 0, 0)" stroke="rgb(204, 204, 204)" stroke-width="1px"></line><line x1="800.4586656358506" y1="0" x2="800.4586656358506" y2="5" style="visibility: inherit;" fill="rgb(0, 0, 0)" stroke="rgb(204, 204, 204)" stroke-width="1px"></line><line x1="900.515998840332" y1="0" x2="900.515998840332" y2="5" style="visibility: inherit;" fill="rgb(0, 0, 0)" stroke="rgb(204, 204, 204)" stroke-width="1px"></line></g><g transform="translate(0, 8)"><text style="text-anchor: middle; visibility: hidden; font-family: &quot;Helvetica Neue&quot;, sans-serif; font-size: 12px; font-weight: 200;" x="0" y="0" dx="0em" dy="0.95em" fill="rgb(50, 49, 63)" stroke="none" stroke-width="1px">-20</text><text style="text-anchor: middle; visibility: inherit; font-family: &quot;Helvetica Neue&quot;, sans-serif; font-size: 12px; font-weight: 200;" x="100.05733320448132" y="0" dx="0em" dy="0.95em" fill="rgb(50, 49, 63)" stroke="none" stroke-width="1px">0</text><text style="text-anchor: middle; visibility: inherit; font-family: &quot;Helvetica Neue&quot;, sans-serif; font-size: 12px; font-weight: 200;" x="200.11466640896265" y="0" dx="0em" dy="0.95em" fill="rgb(50, 49, 63)" stroke="none" stroke-width="1px">20</text><text style="text-anchor: middle; visibility: inherit; font-family: &quot;Helvetica Neue&quot;, sans-serif; font-size: 12px; font-weight: 200;" x="300.171999613444" y="0" dx="0em" dy="0.95em" fill="rgb(50, 49, 63)" stroke="none" stroke-width="1px">40</text><text style="text-anchor: middle; visibility: inherit; font-family: &quot;Helvetica Neue&quot;, sans-serif; font-size: 12px; font-weight: 200;" x="400.2293328179253" y="0" dx="0em" dy="0.95em" fill="rgb(50, 49, 63)" stroke="none" stroke-width="1px">60</text><text style="text-anchor: middle; visibility: inherit; font-family: &quot;Helvetica Neue&quot;, sans-serif; font-size: 12px; font-weight: 200;" x="500.28666602240673" y="0" dx="0em" dy="0.95em" fill="rgb(50, 49, 63)" stroke="none" stroke-width="1px">80</text><text style="text-anchor: middle; visibility: inherit; font-family: &quot;Helvetica Neue&quot;, sans-serif; font-size: 12px; font-weight: 200;" x="600.343999226888" y="0" dx="0em" dy="0.95em" fill="rgb(50, 49, 63)" stroke="none" stroke-width="1px">100</text><text style="text-anchor: middle; visibility: inherit; font-family: &quot;Helvetica Neue&quot;, sans-serif; font-size: 12px; font-weight: 200;" x="700.4013324313694" y="0" dx="0em" dy="0.95em" fill="rgb(50, 49, 63)" stroke="none" stroke-width="1px">120</text><text style="text-anchor: middle; visibility: inherit; font-family: &quot;Helvetica Neue&quot;, sans-serif; font-size: 12px; font-weight: 200;" x="800.4586656358506" y="0" dx="0em" dy="0.95em" fill="rgb(50, 49, 63)" stroke="none" stroke-width="1px">140</text><text style="text-anchor: middle; visibility: hidden; font-family: &quot;Helvetica Neue&quot;, sans-serif; font-size: 12px; font-weight: 200;" x="900.515998840332" y="0" dx="0em" dy="0.95em" fill="rgb(50, 49, 63)" stroke="none" stroke-width="1px">160</text></g><line x1="0" y1="0" x2="900.515998840332" y2="0" fill="rgb(0, 0, 0)" stroke="rgb(204, 204, 204)" stroke-width="1px"></line></g></g></g></g></svg>